<svg id="Calque_1" data-name="Calque 1" xmlns="http://www.w3.org/2000/svg" xmlns:xlink="http://www.w3.org/1999/xlink" viewBox="0 0 1000 1000"><defs><style>.cls-1{fill:transparent;}.cls-2{fill:url(#Dégradé_sans_nom_208);}.cls-3{fill:url(#Dégradé_sans_nom_57);}.cls-4{fill:url(#Dégradé_sans_nom_57-2);}.cls-5{fill:url(#Dégradé_sans_nom_57-3);}.cls-6{fill:url(#Dégradé_sans_nom_59);}.cls-7{fill:url(#Dégradé_sans_nom_57-4);}.cls-8{fill:url(#Dégradé_sans_nom_57-5);}.cls-9{fill:url(#Dégradé_sans_nom_57-6);}.cls-10{fill:url(#Dégradé_sans_nom_57-7);}</style><linearGradient id="Dégradé_sans_nom_208" x1="612.7" y1="971.36" x2="444.26" y2="15.25" gradientUnits="userSpaceOnUse"><stop offset="0" stop-color="#034c4f"/><stop offset="1" stop-color="#023e41"/></linearGradient><linearGradient id="Dégradé_sans_nom_57" x1="660.3" y1="1001.29" x2="409.94" y2="24.26" gradientUnits="userSpaceOnUse"><stop offset="0" stop-color="#036c70"/><stop offset="1" stop-color="#0fa893"/></linearGradient><linearGradient id="Dégradé_sans_nom_57-2" x1="732.62" y1="994.85" x2="466.25" y2="-44.65" xlink:href="#Dégradé_sans_nom_57"/><linearGradient id="Dégradé_sans_nom_57-3" x1="680.19" y1="850.32" x2="527.94" y2="256.15" xlink:href="#Dégradé_sans_nom_57"/><linearGradient id="Dégradé_sans_nom_59" x1="584.17" y1="746.27" x2="424.54" y2="123.33" xlink:href="#Dégradé_sans_nom_57"/><linearGradient id="Dégradé_sans_nom_57-4" x1="581.15" y1="875.7" x2="428.89" y2="281.54" xlink:href="#Dégradé_sans_nom_57"/><linearGradient id="Dégradé_sans_nom_57-5" x1="638.05" y1="861.12" x2="485.8" y2="266.95" xlink:href="#Dégradé_sans_nom_57"/><linearGradient id="Dégradé_sans_nom_57-6" x1="520.5" y1="891.24" x2="325.57" y2="130.54" xlink:href="#Dégradé_sans_nom_57"/><linearGradient id="Dégradé_sans_nom_57-7" x1="521.57" y1="890.97" x2="341.69" y2="189.02" xlink:href="#Dégradé_sans_nom_57"/></defs><polygon class="cls-1" points="283.54 373.93 476.77 155.78 610.85 223.51 610.84 818.63 368.24 778.77 283.54 373.93"/><path class="cls-2" d="M773.58,720.3a272.54,272.54,0,0,1-162.73,53.33H417.43a33.26,33.26,0,0,1-33.25-33.26V514.91a60.07,60.07,0,0,1-38.54-56v-60l16.69-17.36h0l21.75-22.62L429.53,305l.85-1c0-3.9,0-8,0-12.24,0-12.6.1-25.74,0-34.5a33.8,33.8,0,0,1,33.76-33.77H610.85c57.56,0,112.43,18.31,158.45,50.95l18.61-129.94a394.36,394.36,0,0,0-177.06-41.68c-145.83,0-273.25,78.8-342,196.15-1,1.72-2,3.47-3,5.22s-2,3.56-3,5.36c-.73,1.33-1.45,2.68-2.16,4-.44.83-.88,1.65-1.31,2.49s-.87,1.65-1.29,2.48a.53.53,0,0,0-.08.17q-1,2-2,4l-.29.57c-.64,1.3-1.28,2.62-1.91,3.93s-1.38,2.89-2.06,4.34-1.39,3-2.07,4.49-1.22,2.73-1.82,4.1l-.26.6c-.32.73-.64,1.46-.95,2.2-.24.55-.47,1.11-.71,1.67-.06.15-.13.32-.2.47l0,.05c0,.06-.05.11-.07.17-.44,1.08-.9,2.15-1.34,3.23-.19.47-.39.93-.57,1.41l-.75,1.84c-.43,1.08-.85,2.16-1.28,3.25s-.77,2-1.16,3a1.66,1.66,0,0,1-.1.29c-.14.35-.27.71-.41,1.07,0,.13-.09.24-.14.37h0a.47.47,0,0,1,0,.14s0,.08,0,.12a1.46,1.46,0,0,0-.07.19l-.18.47c-.22.59-.44,1.19-.67,1.78a3.43,3.43,0,0,1-.13.38l-.51,1.38-.31.87c-.07.19-.13.38-.2.56s-.07.21-.11.31c-.39,1.08-.77,2.16-1.14,3.25-.09.25-.19.51-.27.77-.36,1-.71,2.07-1.05,3.1-.26.76-.51,1.52-.76,2.28s-.58,1.77-.86,2.66c-.39,1.19-.76,2.39-1.13,3.59,0,0,0,.09,0,.13-.2.63-.38,1.25-.57,1.86s-.34,1.09-.5,1.63-.32,1.1-.48,1.64-.3,1-.44,1.53-.37,1.28-.56,1.92c-.1.37-.21.74-.31,1.12s-.15.54-.23.81l0,.1c-.33,1.17-.65,2.35-1,3.52-.36,1.34-.71,2.68-1.05,4-.24.95-.49,1.91-.73,2.87l-.08.29c-.15.63-.31,1.26-.46,1.9,0,.23-.11.45-.17.68l-.06.27-.6,2.52c-.06.25-.11.5-.17.75-.18.76-.35,1.52-.53,2.29l-.12.56c0,.1-.05.21-.07.32s-.07.27-.1.4c-.26,1.17-.51,2.34-.76,3.52-.05.25-.1.49-.16.75,0,0,0,.05,0,.08-.3,1.43-.59,2.87-.87,4.31-.51,2.53-1,5.07-1.44,7.63l0,.17c-.12.63-.22,1.26-.33,1.89-.2,1.18-.41,2.37-.6,3.55,0,.32-.1.63-.16.95-.29,1.87-.58,3.73-.85,5.6-.09.59-.18,1.17-.25,1.76s-.17,1.15-.25,1.72-.15,1.15-.23,1.72c0,.05,0,.09,0,.14-.17,1.25-.32,2.5-.48,3.76,0,.26-.06.52-.09.78-.09.79-.19,1.58-.27,2.36l-.06.47c-.09.8-.19,1.6-.27,2.4,0,.41-.08.8-.13,1.21-.17,1.59-.32,3.2-.47,4.8-.08.81-.15,1.64-.22,2.47s-.12,1.4-.18,2.1c0,.13,0,.26,0,.38l0,.34c0,.07,0,.14,0,.21s0,.41,0,.62l-.12,1.69c-.06.84-.11,1.69-.17,2.52l0,.41c-.1,1.59-.2,3.19-.28,4.79-.18,3.47-.31,6.95-.41,10.45,0,1.8-.09,3.61-.11,5.42,0,1.62,0,3.25,0,4.88s0,3.26,0,4.88.05,3.23.09,4.84.09,3.22.14,4.82C222.47,725.29,396.84,895,610.85,895A394.34,394.34,0,0,0,794.8,849.8Z"/><polygon class="cls-3" points="610.85 319.57 447.9 319.57 380.77 399.18 610.85 399.23 610.85 319.57"/><path class="cls-4" d="M610.85,421.87H571.54v37.39a37.39,37.39,0,0,0,37.39,37.38c.64,0,1.28,0,1.92-.05Z"/><path class="cls-5" d="M610.85,246.48H464.17A11.16,11.16,0,0,0,453,257.63V297H610.85Z"/><path class="cls-6" d="M543.83,459.26V421.87H469.06v37.39a37.39,37.39,0,0,0,74.77,0Z"/><path class="cls-7" d="M610.85,519.21l-1.92,0a60,60,0,0,1-51.24-28.82A60,60,0,0,1,456.2,492a1.09,1.09,0,0,1-.14-.23,59.85,59.85,0,0,1-31.91,24.57l-.58.19c-.55.17-1.1.32-1.66.46l-.83.22c-.65.16-1.3.33-2,.48a68.4,68.4,0,0,1-10.91,1.48l-1.43.06V667.64h140V595.85a21.82,21.82,0,0,1,21.8-21.79h42.29Z"/><rect class="cls-8" x="569.37" y="596.67" width="41.48" height="154.72"/><path class="cls-9" d="M407.52,496.57c.63,0,1.27-.07,1.89-.14s1.13-.12,1.7-.21c.41-.05.8-.12,1.21-.19A37.39,37.39,0,0,0,443,459.26V421.87H368.24v37.39a37.39,37.39,0,0,0,37.39,37.38,5.33,5.33,0,0,0,.57,0h.58Z"/><path class="cls-10" d="M415.67,751.22a10.29,10.29,0,0,0,1.76.16H546.77V690.25h-140v50.48A10.64,10.64,0,0,0,415.67,751.22Z"/></svg>
